
<svg xmlns="http://www.w3.org/2000/svg" >
  <symbol id="facebook-icon" viewBox="0 0 32 32">
    <path d="M24 .007L19.85 0c-4.663 0-7.676 3.09-7.676 7.875v3.63H8.002c-.36 0-.652.294-.652.654v5.26c0 .36.292.653.652.653h4.172v13.275c0 .36.292.652.653.652h5.444c.36 0 .653-.292.653-.652V18.073h4.88c.36 0 .65-.292.65-.653l.003-5.26c0-.174-.07-.34-.19-.462-.123-.123-.29-.192-.463-.192h-4.88V8.428c0-1.48.353-2.23 2.28-2.23h2.795c.36 0 .652-.294.652-.654V.66c0-.36-.29-.653-.65-.653z"/>
  </symbol>

  <symbol id="google-plus-icon" viewBox="0 0 32 32">
    <path d="M18.413 20.375c-.34-.456-.714-.88-1.125-1.27-.41-.39-.82-.746-1.23-1.066-.41-.322-.786-.63-1.125-.925-.34-.294-.616-.602-.827-.923-.212-.32-.317-.647-.317-.98 0-.462.146-.895.44-1.3.296-.402.655-.793 1.078-1.172.423-.378.846-.79 1.27-1.24.422-.45.78-1.042 1.076-1.78.294-.736.442-1.58.442-2.528 0-1.128-.25-2.21-.75-3.25-.5-1.038-1.205-1.846-2.116-2.423h2.596L20.422 0H12.02c-1.193 0-2.392.128-3.597.385-1.78.398-3.28 1.305-4.5 2.72C2.707 4.524 2.098 6.13 2.098 7.924c0 1.898.683 3.475 2.048 4.73C5.51 13.91 7.148 14.54 9.058 14.54c.385 0 .833-.034 1.346-.098-.026.103-.07.24-.134.414l-.154.413c-.04.102-.07.227-.096.374-.026.148-.04.298-.04.452 0 .846.41 1.802 1.232 2.866-.975.026-1.936.112-2.885.26-.948.147-1.942.378-2.98.692-1.04.314-1.968.77-2.79 1.365-.82.596-1.434 1.304-1.845 2.124-.474.95-.71 1.814-.71 2.596 0 .86.19 1.638.576 2.337.384.698.878 1.27 1.48 1.71.603.444 1.298.815 2.087 1.117.788.3 1.57.516 2.346.644S8.033 32 8.79 32c3.434 0 6.127-.84 8.075-2.52 1.795-1.563 2.693-3.37 2.693-5.422 0-.73-.106-1.414-.318-2.048-.21-.636-.487-1.18-.827-1.635zM11 13.385c-.654 0-1.276-.167-1.865-.5-.59-.334-1.09-.766-1.5-1.298-.41-.532-.77-1.132-1.077-1.798-.308-.668-.535-1.334-.683-2-.147-.668-.22-1.302-.22-1.905 0-1.23.326-2.288.98-3.173.653-.885 1.577-1.327 2.77-1.327.845 0 1.61.263 2.297.788.686.526 1.224 1.193 1.615 2 .39.808.693 1.644.904 2.51.213.865.318 1.682.318 2.452 0 1.282-.278 2.31-.836 3.087-.558.775-1.458 1.163-2.702 1.163zm5.317 14.44c-.352.604-.83 1.075-1.433 1.414-.602.34-1.246.59-1.932.75-.686.16-1.407.24-2.164.24-.82 0-1.634-.096-2.442-.288-.807-.192-1.58-.484-2.317-.875-.738-.39-1.334-.93-1.79-1.616-.454-.685-.682-1.463-.682-2.335 0-.77.173-1.455.52-2.058.346-.602.788-1.083 1.326-1.442.54-.36 1.167-.654 1.885-.884.717-.23 1.41-.39 2.076-.48.666-.09 1.346-.135 2.038-.135.423 0 .744.013.96.04.078.05.274.184.588.403l.635.442c.108.077.307.224.596.442.288.218.493.38.615.49.122.11.298.273.53.49.23.22.4.408.508.568.11.16.244.356.404.586.16.23.273.452.337.664.064.21.125.442.182.692.057.25.086.51.086.78 0 .807-.176 1.512-.53 2.114z"/><path d="M24.615 7.385v4.923h2.462V7.385H32V4.923h-4.923V0h-2.462v4.923h-4.923v2.462"/>
  </symbol>

  <symbol id="profile-icon" viewBox="0 0 32 32">
    <path d="M30.578 28.796l-7.413-7.71c1.906-2.265 2.95-5.116 2.95-8.084 0-6.934-5.64-12.575-12.575-12.575C6.606.427.965 6.067.965 13.002c0 6.934 5.64 12.575 12.575 12.575 2.603 0 5.084-.785 7.205-2.275l7.47 7.768c.31.324.73.503 1.18.503.427 0 .83-.162 1.138-.458.65-.627.672-1.667.045-2.32zM13.54 3.706c5.125 0 9.295 4.17 9.295 9.296 0 5.125-4.17 9.295-9.295 9.295s-9.295-4.17-9.295-9.295 4.17-9.295 9.295-9.295z" />
  </symbol>

  <symbol id="search-icon" viewBox="0 0 32 32">
    <path d="M19.958 22.24c-.79-.125-.808-2.296-.808-2.296s2.32-2.297 2.826-5.386c1.36 0 2.2-3.284.84-4.44C22.873 8.904 24.566.572 16 .572c-8.565 0-6.873 8.333-6.817 9.55-1.36 1.154-.52 4.438.84 4.438.506 3.09 2.827 5.386 2.827 5.386s-.018 2.17-.808 2.297C9.498 22.646 0 26.836 0 31.43h32c0-4.595-9.498-8.785-12.042-9.19z"/>
  </symbol>

  <symbol id="twitter-icon" viewBox="0 0 32 32">
    <path d="M32 6.08c-1.178.52-2.442.875-3.77 1.033 1.356-.812 2.394-2.1 2.886-3.63-1.272.752-2.675 1.298-4.17 1.594-1.2-1.278-2.903-2.074-4.792-2.074-3.626 0-6.565 2.94-6.565 6.563 0 .514.057 1.016.17 1.496-5.456-.274-10.293-2.888-13.53-6.86-.566.97-.888 2.097-.888 3.3 0 2.278 1.16 4.288 2.92 5.464-1.077-.036-2.088-.332-2.974-.824v.082c0 3.18 2.263 5.833 5.265 6.436-.55.148-1.13.23-1.73.23-.424 0-.834-.042-1.236-.122.836 2.61 3.26 4.508 6.13 4.56-2.244 1.76-5.076 2.805-8.15 2.805-.53 0-1.053-.032-1.567-.09 2.905 1.866 6.355 2.954 10.062 2.954 12.076 0 18.677-10.003 18.677-18.677l-.023-.85c1.29-.92 2.405-2.075 3.283-3.39z"/>
  </symbol>
  
</svg>