
<svg xmlns="http://www.w3.org/2000/svg" >
  <symbol id="facebook-icon" viewBox="0 0 32 32">
    <path d="M24 .007L19.85 0c-4.663 0-7.676 3.09-7.676 7.875v3.63H8.002c-.36 0-.652.294-.652.654v5.26c0 .36.292.653.652.653h4.172v13.275c0 .36.292.652.653.652h5.444c.36 0 .653-.292.653-.652V18.073h4.88c.36 0 .65-.292.65-.653l.003-5.26c0-.174-.07-.34-.19-.462-.123-.123-.29-.192-.463-.192h-4.88V8.428c0-1.48.353-2.23 2.28-2.23h2.795c.36 0 .652-.294.652-.654V.66c0-.36-.29-.653-.65-.653z"/>
  </symbol>

  <symbol id="google-plus-icon" viewBox="0 0 32 32">
    <path d="M18.413 20.375c-.34-.456-.714-.88-1.125-1.27-.41-.39-.82-.746-1.23-1.066-.41-.322-.786-.63-1.125-.925-.34-.294-.616-.602-.827-.923-.212-.32-.317-.647-.317-.98 0-.462.146-.895.44-1.3.296-.402.655-.793 1.078-1.172.423-.378.846-.79 1.27-1.24.422-.45.78-1.042 1.076-1.78.294-.736.442-1.58.442-2.528 0-1.128-.25-2.21-.75-3.25-.5-1.038-1.205-1.846-2.116-2.423h2.596L20.422 0H12.02c-1.193 0-2.392.128-3.597.385-1.78.398-3.28 1.305-4.5 2.72C2.707 4.524 2.098 6.13 2.098 7.924c0 1.898.683 3.475 2.048 4.73C5.51 13.91 7.148 14.54 9.058 14.54c.385 0 .833-.034 1.346-.098-.026.103-.07.24-.134.414l-.154.413c-.04.102-.07.227-.096.374-.026.148-.04.298-.04.452 0 .846.41 1.802 1.232 2.866-.975.026-1.936.112-2.885.26-.948.147-1.942.378-2.98.692-1.04.314-1.968.77-2.79 1.365-.82.596-1.434 1.304-1.845 2.124-.474.95-.71 1.814-.71 2.596 0 .86.19 1.638.576 2.337.384.698.878 1.27 1.48 1.71.603.444 1.298.815 2.087 1.117.788.3 1.57.516 2.346.644S8.033 32 8.79 32c3.434 0 6.127-.84 8.075-2.52 1.795-1.563 2.693-3.37 2.693-5.422 0-.73-.106-1.414-.318-2.048-.21-.636-.487-1.18-.827-1.635zM11 13.385c-.654 0-1.276-.167-1.865-.5-.59-.334-1.09-.766-1.5-1.298-.41-.532-.77-1.132-1.077-1.798-.308-.668-.535-1.334-.683-2-.147-.668-.22-1.302-.22-1.905 0-1.23.326-2.288.98-3.173.653-.885 1.577-1.327 2.77-1.327.845 0 1.61.263 2.297.788.686.526 1.224 1.193 1.615 2 .39.808.693 1.644.904 2.51.213.865.318 1.682.318 2.452 0 1.282-.278 2.31-.836 3.087-.558.775-1.458 1.163-2.702 1.163zm5.317 14.44c-.352.604-.83 1.075-1.433 1.414-.602.34-1.246.59-1.932.75-.686.16-1.407.24-2.164.24-.82 0-1.634-.096-2.442-.288-.807-.192-1.58-.484-2.317-.875-.738-.39-1.334-.93-1.79-1.616-.454-.685-.682-1.463-.682-2.335 0-.77.173-1.455.52-2.058.346-.602.788-1.083 1.326-1.442.54-.36 1.167-.654 1.885-.884.717-.23 1.41-.39 2.076-.48.666-.09 1.346-.135 2.038-.135.423 0 .744.013.96.04.078.05.274.184.588.403l.635.442c.108.077.307.224.596.442.288.218.493.38.615.49.122.11.298.273.53.49.23.22.4.408.508.568.11.16.244.356.404.586.16.23.273.452.337.664.064.21.125.442.182.692.057.25.086.51.086.78 0 .807-.176 1.512-.53 2.114z"/><path d="M24.615 7.385v4.923h2.462V7.385H32V4.923h-4.923V0h-2.462v4.923h-4.923v2.462"/>
  </symbol>

  <symbol id="search-icon" viewBox="0 0 32 32">
    <path d="M30.578 28.796l-7.413-7.71c1.906-2.265 2.95-5.116 2.95-8.084 0-6.934-5.64-12.575-12.575-12.575C6.606.427.965 6.067.965 13.002c0 6.934 5.64 12.575 12.575 12.575 2.603 0 5.084-.785 7.205-2.275l7.47 7.768c.31.324.73.503 1.18.503.427 0 .83-.162 1.138-.458.65-.627.672-1.667.045-2.32zM13.54 3.706c5.125 0 9.295 4.17 9.295 9.296 0 5.125-4.17 9.295-9.295 9.295s-9.295-4.17-9.295-9.295 4.17-9.295 9.295-9.295z" />
  </symbol>

  <symbol id="profile-icon" viewBox="0 0 32 32">
    <path d="M19.958 22.24c-.79-.125-.808-2.296-.808-2.296s2.32-2.297 2.826-5.386c1.36 0 2.2-3.284.84-4.44C22.873 8.904 24.566.572 16 .572c-8.565 0-6.873 8.333-6.817 9.55-1.36 1.154-.52 4.438.84 4.438.506 3.09 2.827 5.386 2.827 5.386s-.018 2.17-.808 2.297C9.498 22.646 0 26.836 0 31.43h32c0-4.595-9.498-8.785-12.042-9.19z"/>
  </symbol>

  <symbol id="twitter-icon" viewBox="0 0 32 32">
    <path d="M32 6.08c-1.178.52-2.442.875-3.77 1.033 1.356-.812 2.394-2.1 2.886-3.63-1.272.752-2.675 1.298-4.17 1.594-1.2-1.278-2.903-2.074-4.792-2.074-3.626 0-6.565 2.94-6.565 6.563 0 .514.057 1.016.17 1.496-5.456-.274-10.293-2.888-13.53-6.86-.566.97-.888 2.097-.888 3.3 0 2.278 1.16 4.288 2.92 5.464-1.077-.036-2.088-.332-2.974-.824v.082c0 3.18 2.263 5.833 5.265 6.436-.55.148-1.13.23-1.73.23-.424 0-.834-.042-1.236-.122.836 2.61 3.26 4.508 6.13 4.56-2.244 1.76-5.076 2.805-8.15 2.805-.53 0-1.053-.032-1.567-.09 2.905 1.866 6.355 2.954 10.062 2.954 12.076 0 18.677-10.003 18.677-18.677l-.023-.85c1.29-.92 2.405-2.075 3.283-3.39z"/>
  </symbol>

  <symbol id="home-icon" viewBox="0 0 32 32">
    <path d="M31.6 15.625c.58-.638.523-1.616-.126-2.183L17.174.928c-.65-.567-1.69-.556-2.327.027L.497 14.11c-.635.582-.666 1.558-.068 2.18l.358.374c.597.62 1.562.695 2.154.165l1.072-.96v14.06c0 .862.7 1.56 1.56 1.56h5.595c.86 0 1.56-.698 1.56-1.56V20.09h7.135v9.837c-.013.86.604 1.56 1.466 1.56h5.93c.86 0 1.56-.7 1.56-1.562V16.066l.662.58c.364.322 1.13.065 1.71-.574l.407-.447z" />
  </symbol>

  <symbol id="shopping-cart-icon" viewBox="0 0 32 32">
    <path d="M24.615 27.077c0 .68.24 1.26.722 1.74.48.48 1.06.722 1.74.722.68 0 1.26-.242 1.74-.723.48-.48.722-1.06.722-1.74 0-.68-.242-1.26-.723-1.74-.48-.48-1.06-.72-1.74-.72-.68 0-1.26.24-1.74.72s-.722 1.06-.722 1.74zM31.635 5.288c-.244-.244-.532-.365-.866-.365H7.672c-.013-.09-.042-.253-.087-.49-.044-.238-.08-.427-.105-.568-.025-.14-.073-.31-.144-.51-.07-.198-.153-.355-.25-.47-.095-.116-.224-.215-.384-.3-.16-.082-.343-.124-.548-.124H1.23c-.333 0-.62.123-.865.367C.122 3.07 0 3.36 0 3.692c0 .333.122.622.365.865.244.244.533.366.866.366h3.924L8.557 20.75c-.025.05-.157.295-.394.73-.237.437-.426.818-.567 1.145-.14.327-.212.58-.212.76 0 .333.122.62.366.865.244.243.532.366.865.366h19.692c.333 0 .622-.123.865-.366.244-.243.366-.532.366-.865 0-.334-.122-.622-.366-.866-.243-.244-.532-.366-.865-.366H10.615c.308-.616.462-1.026.462-1.23 0-.13-.016-.27-.048-.424-.034-.153-.072-.324-.117-.51-.045-.185-.073-.323-.086-.413l20.077-2.346c.32-.038.583-.175.79-.413.204-.237.306-.51.306-.817V6.154c0-.333-.122-.622-.365-.866zM7.384 27.077c0 .68.24 1.26.722 1.74.48.48 1.06.722 1.74.722.68 0 1.26-.242 1.74-.723.48-.48.722-1.06.722-1.74 0-.68-.24-1.26-.722-1.74-.48-.48-1.06-.72-1.74-.72-.68 0-1.26.24-1.74.72s-.722 1.06-.722 1.74z"/>
  </symbol>

  <symbol id="group-icon" viewBox="0 0 32 32">
    <path d="M31.496 21.822c-1.782-1.46-3.7-2.43-4.087-2.62-.047-.02-.073-.065-.073-.117v-2.77c.347-.23.576-.63.576-1.08v-2.876c0-1.43-1.16-2.588-2.587-2.588h-.615c-1.427 0-2.586 1.16-2.586 2.587v2.874c0 .452.23.845.576 1.08v2.77c0 .02-.007.033-.007.047.544.374 1.114.793 1.67 1.25.65.54 1.022 1.324 1.022 2.176v2.312H32v-1.972c0-.412-.183-.812-.504-1.074z"/><path d="M23.61 21.292c-2.09-1.716-4.342-2.856-4.807-3.085-.052-.026-.085-.078-.085-.137v-3.255c.413-.275.68-.74.68-1.264v-3.38c0-1.676-1.36-3.038-3.038-3.038h-.72c-1.677 0-3.04 1.362-3.04 3.04v3.372c0 .53.27.996.682 1.264v3.255c0 .06-.033.11-.085.138-.46.223-2.712 1.363-4.807 3.085-.38.308-.596.773-.596 1.264v2.31h16.412v-2.31c0-.485-.216-.95-.596-1.258z"/><path d="M9.3 19.085v-2.77c.347-.23.576-.63.576-1.08v-2.876c0-1.43-1.16-2.588-2.587-2.588h-.616c-1.428 0-2.587 1.16-2.587 2.587v2.874c0 .452.23.845.576 1.08v2.77c0 .047-.026.092-.072.12-.392.19-2.31 1.158-4.086 2.618-.32.262-.504.662-.504 1.074v1.972h6.615v-2.312c0-.845.373-1.637 1.022-2.175.556-.457 1.126-.876 1.67-1.25 0-.013-.007-.026-.007-.045z"/>
  </symbol>

  <symbol id="trophy-icon" viewBox="0 0 32 32">
    <path d="M20.44 17.328c5.28-.06 9.56-4.368 9.56-9.66C30 5.643 28.356 4 26.333 4c-.656 0-1.284.184-1.832.503.09-1.026.136-2.088.152-3.17h.68c.37 0 .668-.298.668-.666C26 .3 25.7 0 25.333 0H6.667C6.3 0 6 .3 6 .667c0 .368.3.666.667.666h.68c.017 1.083.064 2.144.152 3.17C6.95 4.183 6.322 4 5.666 4 3.644 4 2 5.644 2 7.667c0 5.293 4.28 9.602 9.56 9.66 1.113 1.46 2.392 2.376 3.773 2.6V28h-2C11.496 28 10 29.495 10 31.333c0 .368.3.667.667.667h10.666c.368 0 .667-.3.667-.667C22 29.495 20.505 28 18.667 28h-2v-8.073c1.38-.224 2.658-1.14 3.773-2.6zm3.82-10.716c.4-.776 1.2-1.28 2.073-1.28 1.287 0 2.334 1.048 2.334 2.335 0 4.244-3.19 7.75-7.3 8.262 1.35-2.345 2.368-5.562 2.894-9.318zM3.334 7.667c0-1.287 1.047-2.334 2.334-2.334.874 0 1.674.504 2.072 1.282.525 3.754 1.544 6.97 2.892 9.314-4.108-.513-7.3-4.02-7.3-8.263z"/>
  </symbol>

  <symbol id="information-icon" viewBox="0 0 32 32">
    <path d="M15.79.213C7.07.33.096 7.493.212 16.213c.117 8.715 7.28 15.69 15.998 15.574 8.718-.118 15.693-7.28 15.577-16C31.67 7.072 24.507.098 15.79.214zm1.75 5.26c1.604 0 2.078.933 2.078 1.997 0 1.33-1.065 2.56-2.882 2.56-1.52 0-2.243-.764-2.2-2.027 0-1.065.89-2.53 3.003-2.53zM13.424 25.87c-1.097 0-1.9-.666-1.133-3.593l1.258-5.19c.22-.833.255-1.166 0-1.166-.33 0-1.753.574-2.594 1.14l-.548-.9c2.668-2.227 5.736-3.534 7.05-3.534 1.098 0 1.28 1.298.732 3.293l-1.44 5.457c-.256.964-.146 1.297.108 1.297.33 0 1.408-.4 2.467-1.233l.622.833c-2.595 2.595-5.426 3.595-6.522 3.595z"/>
  </symbol>

  <symbol id="mail-icon" viewBox="0 0 32 32">
    <path d="M2.53 6.123l11.527 9.13c.523.414 1.243.598 1.942.563.698.035 1.418-.148 1.94-.563l11.527-9.13c.924-.727.715-1.323-.457-1.323H2.99c-1.172 0-1.38.596-.46 1.323z"/><path d="M30.3 8.532l-12.596 9.563c-.47.354-1.088.526-1.702.518-.616.008-1.233-.165-1.704-.518L1.7 8.532c-.935-.71-1.7-.328-1.7.844v15.69C0 26.24.96 27.2 2.133 27.2h27.733c1.173 0 2.133-.96 2.133-2.133V9.377c0-1.173-.765-1.554-1.7-.845z"/>
  </symbol>

  <symbol id="location-icon" viewBox="0 0 32 32">
    <path d="M23.926 3.283C21.81 1.166 18.994 0 16 0c-2.993 0-5.807 1.166-7.923 3.283C4.16 7.2 3.673 14.57 7.022 19.033L16.002 32l8.964-12.95c3.364-4.48 2.877-11.85-1.04-15.767zm-7.82 11.91c-2.257 0-4.092-1.834-4.092-4.09 0-2.255 1.835-4.09 4.09-4.09 2.256 0 4.09 1.835 4.09 4.09 0 2.256-1.834 4.09-4.09 4.09z"/>
  </symbol>

  <symbol id="phone-icon" viewBox="0 0 32 32">
    <path d="M31.985 25.248c.068.52-.09.97-.475 1.355l-4.505 4.472c-.203.226-.47.418-.796.576-.33.16-.65.26-.966.305-.023 0-.09.006-.204.018-.113.01-.26.017-.44.017-.43 0-1.124-.074-2.084-.22-.96-.148-2.134-.51-3.523-1.085-1.39-.576-2.964-1.44-4.725-2.59-1.762-1.153-3.636-2.734-5.624-4.744-1.58-1.557-2.89-3.048-3.93-4.47-1.038-1.423-1.874-2.74-2.506-3.947C1.575 13.725 1.1 12.63.785 11.647c-.316-.983-.53-1.83-.644-2.54-.112-.712-.157-1.27-.134-1.678.022-.407.034-.633.034-.678.045-.316.146-.638.304-.966.158-.327.35-.593.576-.796L5.426.485C5.742.17 6.103.01 6.51.01c.293 0 .553.085.78.254.225.17.417.38.575.627L11.49 7.77c.203.36.26.757.17 1.186-.09.43-.283.79-.577 1.084l-1.66 1.66c-.045.045-.084.118-.118.22-.034.102-.05.186-.05.254.09.474.292 1.016.61 1.626.27.542.687 1.203 1.252 1.982.565.78 1.366 1.677 2.405 2.693 1.017 1.04 1.92 1.846 2.71 2.422.79.576 1.45 1 1.982 1.27.53.27.937.435 1.22.49l.423.086c.045 0 .12-.016.22-.05.102-.034.175-.073.22-.118l1.93-1.965c.408-.36.882-.542 1.424-.542.385 0 .69.068.916.203h.034l6.538 3.862c.474.294.756.666.847 1.118z"/>
  </symbol>

  <symbol id="edit-icon" viewBox="0 0 32 32">
    <path d="M31.122.88c1.172 1.17 1.17 3.07 0 4.242l-1.414 1.414-4.245-4.243L26.877.88c1.172-1.172 3.073-1.173 4.245 0zM9.908 17.85l-1.413 5.656 5.657-1.414L28.294 7.95 24.05 3.707 9.907 17.85zM24 15.07V28H4V8h12.93l3.998-4H0v28h28V11.07l-4 4.002z"/>
  </symbol>

  <symbol id="pinterest-icon" viewBox="0 0 32 32">
    <path d="M25.314 3.28C23.11 1.164 20.064 0 16.73 0c-5.09 0-8.22 2.087-9.95 3.837-2.133 2.157-3.355 5.02-3.355 7.858 0 3.562 1.49 6.296 3.985 7.313.167.07.336.104.5.104.527 0 .944-.345 1.09-.897.083-.317.278-1.1.363-1.44.182-.67.035-.99-.36-1.458-.723-.854-1.06-1.864-1.06-3.178 0-3.904 2.907-8.052 8.294-8.052 4.274 0 6.93 2.43 6.93 6.34 0 2.467-.532 4.752-1.498 6.434-.67 1.17-1.85 2.563-3.662 2.563-.783 0-1.487-.322-1.93-.883-.42-.53-.558-1.215-.39-1.93.19-.805.45-1.647.702-2.46.46-1.485.892-2.888.892-4.007 0-1.915-1.177-3.2-2.928-3.2-2.226 0-3.97 2.26-3.97 5.146 0 1.416.376 2.475.546 2.882l-2.263 9.584c-.183.777-1.284 6.92.54 7.408 2.046.55 3.877-5.43 4.063-6.107.15-.55.68-2.628 1.003-3.906.99.953 2.58 1.597 4.13 1.597 2.92 0 5.545-1.314 7.393-3.7 1.792-2.313 2.78-5.538 2.78-9.08 0-2.768-1.19-5.498-3.262-7.488z"/>
  </symbol>

  <symbol id="linkedin-icon" viewBox="0 0 32 32">
    <path d="M32 19.458v11.83h-6.86V20.252c0-2.772-.99-4.665-3.473-4.665-1.895 0-3.023 1.276-3.52 2.51-.18.44-.227 1.054-.227 1.672V31.29h-6.86s.092-18.696 0-20.633h6.86v2.924c-.014.023-.033.047-.046.068h.045v-.067c.91-1.403 2.54-3.408 6.182-3.408 4.514 0 7.898 2.95 7.898 9.286zM3.882.71C1.535.71 0 2.25 0 4.276c0 1.98 1.49 3.567 3.79 3.567h.047c2.393 0 3.88-1.586 3.88-3.567C7.674 2.25 6.23.71 3.883.71zM.407 31.29h6.86V10.656H.406V31.29z"/>
  </symbol>
  
</svg>