<?xml version="1.0" encoding="UTF-8" standalone="no"?>
<!-- Generator: Adobe Illustrator 16.0.0, SVG Export Plug-In . SVG Version: 6.00 Build 0)  -->

<svg
   xmlns:dc="http://purl.org/dc/elements/1.1/"
   xmlns:cc="http://creativecommons.org/ns#"
   xmlns:rdf="http://www.w3.org/1999/02/22-rdf-syntax-ns#"
   xmlns:svg="http://www.w3.org/2000/svg"
   xmlns="http://www.w3.org/2000/svg"
   xmlns:sodipodi="http://sodipodi.sourceforge.net/DTD/sodipodi-0.dtd"
   xmlns:inkscape="http://www.inkscape.org/namespaces/inkscape"
   version="1.1"
   id="Capa_1"
   x="0px"
   y="0px"
   width="32"
   height="32"
   viewBox="0 0 32 32"
   xml:space="preserve"
   inkscape:version="0.91 r13725"
   sodipodi:docname="edit-icon.svg"><metadata
     id="metadata41"><rdf:RDF><cc:Work
         rdf:about=""><dc:format>image/svg+xml</dc:format><dc:type
           rdf:resource="http://purl.org/dc/dcmitype/StillImage" /><dc:title></dc:title></cc:Work></rdf:RDF></metadata><defs
     id="defs39" /><sodipodi:namedview
     pagecolor="#ffffff"
     bordercolor="#666666"
     borderopacity="1"
     objecttolerance="10"
     gridtolerance="10"
     guidetolerance="10"
     inkscape:pageopacity="0"
     inkscape:pageshadow="2"
     inkscape:window-width="1855"
     inkscape:window-height="1056"
     id="namedview37"
     showgrid="false"
     inkscape:zoom="10.429927"
     inkscape:cx="-1.897159"
     inkscape:cy="33.354838"
     inkscape:window-x="65"
     inkscape:window-y="24"
     inkscape:window-maximized="1"
     inkscape:current-layer="Capa_1" /><g
     id="g3"
     transform="matrix(0.06250079,0,0,0.06250079,-4.2156867e-5,-3.0342819e-5)"><path
       d="m 497.941,14.057 c 18.75,18.75 18.719,49.141 0,67.891 L 475.316,104.573 407.41,36.682 430.035,14.057 c 18.749,-18.734 49.156,-18.75 67.906,0 z m -339.407,271.531 -22.609,90.5 90.5,-22.625 L 452.691,127.197 384.785,59.306 158.534,285.588 Z m 225.469,-44.438 0,206.844 -320,0 0,-320 206.859,0 63.983,-64 -334.842,0 0,448 448,0 0,-334.86 -64,64.016 z"
       id="path5"
       inkscape:connector-curvature="0" /></g><g
     id="g7"
     transform="translate(0,-479.995)" /><g
     id="g9"
     transform="translate(0,-479.995)" /><g
     id="g11"
     transform="translate(0,-479.995)" /><g
     id="g13"
     transform="translate(0,-479.995)" /><g
     id="g15"
     transform="translate(0,-479.995)" /><g
     id="g17"
     transform="translate(0,-479.995)" /><g
     id="g19"
     transform="translate(0,-479.995)" /><g
     id="g21"
     transform="translate(0,-479.995)" /><g
     id="g23"
     transform="translate(0,-479.995)" /><g
     id="g25"
     transform="translate(0,-479.995)" /><g
     id="g27"
     transform="translate(0,-479.995)" /><g
     id="g29"
     transform="translate(0,-479.995)" /><g
     id="g31"
     transform="translate(0,-479.995)" /><g
     id="g33"
     transform="translate(0,-479.995)" /><g
     id="g35"
     transform="translate(0,-479.995)" /></svg>