<?xml version="1.0" encoding="UTF-8" standalone="no"?>
<!-- Generator: Adobe Illustrator 16.0.0, SVG Export Plug-In . SVG Version: 6.00 Build 0)  -->

<svg
   xmlns:dc="http://purl.org/dc/elements/1.1/"
   xmlns:cc="http://creativecommons.org/ns#"
   xmlns:rdf="http://www.w3.org/1999/02/22-rdf-syntax-ns#"
   xmlns:svg="http://www.w3.org/2000/svg"
   xmlns="http://www.w3.org/2000/svg"
   xmlns:sodipodi="http://sodipodi.sourceforge.net/DTD/sodipodi-0.dtd"
   xmlns:inkscape="http://www.inkscape.org/namespaces/inkscape"
   version="1.1"
   id="Capa_1"
   x="0px"
   y="0px"
   width="32"
   height="32"
   viewBox="0 0 32 32"
   xml:space="preserve"
   inkscape:version="0.91 r13725"
   sodipodi:docname="facebook-logo.svg"><metadata
     id="metadata41"><rdf:RDF><cc:Work
         rdf:about=""><dc:format>image/svg+xml</dc:format><dc:type
           rdf:resource="http://purl.org/dc/dcmitype/StillImage" /><dc:title></dc:title></cc:Work></rdf:RDF></metadata><defs
     id="defs39" /><sodipodi:namedview
     pagecolor="#ffffff"
     bordercolor="#666666"
     borderopacity="1"
     objecttolerance="10"
     gridtolerance="10"
     guidetolerance="10"
     inkscape:pageopacity="0"
     inkscape:pageshadow="2"
     inkscape:window-width="1855"
     inkscape:window-height="1056"
     id="namedview37"
     showgrid="false"
     inkscape:zoom="2.4551876"
     inkscape:cx="-28.71421"
     inkscape:cy="48.061501"
     inkscape:window-x="65"
     inkscape:window-y="24"
     inkscape:window-maximized="1"
     inkscape:current-layer="Capa_1" /><g
     id="g3"
     style="fill:#000000;fill-opacity:1"
     transform="scale(0.3329068,0.3329068)"><path
       d="M 72.089,0.02 59.624,0 C 45.62,0 36.57,9.285 36.57,23.656 l 0,10.907 -12.533,0 c -1.083,0 -1.96,0.878 -1.96,1.961 l 0,15.803 c 0,1.083 0.878,1.96 1.96,1.96 l 12.533,0 0,39.876 c 0,1.083 0.877,1.96 1.96,1.96 l 16.352,0 c 1.083,0 1.96,-0.878 1.96,-1.96 l 0,-39.876 14.654,0 c 1.083,0 1.96,-0.877 1.96,-1.96 l 0.006,-15.803 c 0,-0.52 -0.207,-1.018 -0.574,-1.386 -0.367,-0.368 -0.867,-0.575 -1.387,-0.575 l -14.659,0 0,-9.246 c 0,-4.444 1.059,-6.7 6.848,-6.7 l 8.397,-0.003 c 1.082,0 1.959,-0.878 1.959,-1.96 l 0,-14.674 c 0,-1.081 -0.876,-1.958 -1.957,-1.96 z"
       id="path5"
       style="fill:#000000;fill-opacity:1"
       inkscape:connector-curvature="0" /></g><g
     id="g7"
     transform="translate(0,-64.123001)" /><g
     id="g9"
     transform="translate(0,-64.123001)" /><g
     id="g11"
     transform="translate(0,-64.123001)" /><g
     id="g13"
     transform="translate(0,-64.123001)" /><g
     id="g15"
     transform="translate(0,-64.123001)" /><g
     id="g17"
     transform="translate(0,-64.123001)" /><g
     id="g19"
     transform="translate(0,-64.123001)" /><g
     id="g21"
     transform="translate(0,-64.123001)" /><g
     id="g23"
     transform="translate(0,-64.123001)" /><g
     id="g25"
     transform="translate(0,-64.123001)" /><g
     id="g27"
     transform="translate(0,-64.123001)" /><g
     id="g29"
     transform="translate(0,-64.123001)" /><g
     id="g31"
     transform="translate(0,-64.123001)" /><g
     id="g33"
     transform="translate(0,-64.123001)" /><g
     id="g35"
     transform="translate(0,-64.123001)" /></svg>