<?xml version="1.0" encoding="UTF-8" standalone="no"?>
<!-- Generator: Adobe Illustrator 19.1.0, SVG Export Plug-In . SVG Version: 6.00 Build 0)  -->

<svg
   xmlns:dc="http://purl.org/dc/elements/1.1/"
   xmlns:cc="http://creativecommons.org/ns#"
   xmlns:rdf="http://www.w3.org/1999/02/22-rdf-syntax-ns#"
   xmlns:svg="http://www.w3.org/2000/svg"
   xmlns="http://www.w3.org/2000/svg"
   xmlns:sodipodi="http://sodipodi.sourceforge.net/DTD/sodipodi-0.dtd"
   xmlns:inkscape="http://www.inkscape.org/namespaces/inkscape"
   version="1.1"
   id="Capa_1"
   x="0px"
   y="0px"
   viewBox="0 0 32 32"
   xml:space="preserve"
   inkscape:version="0.91 r13725"
   sodipodi:docname="group-icon.svg"
   width="32"
   height="32"><metadata
     id="metadata47"><rdf:RDF><cc:Work
         rdf:about=""><dc:format>image/svg+xml</dc:format><dc:type
           rdf:resource="http://purl.org/dc/dcmitype/StillImage" /><dc:title></dc:title></cc:Work></rdf:RDF></metadata><defs
     id="defs45" /><sodipodi:namedview
     pagecolor="#ffffff"
     bordercolor="#666666"
     borderopacity="1"
     objecttolerance="10"
     gridtolerance="10"
     guidetolerance="10"
     inkscape:pageopacity="0"
     inkscape:pageshadow="2"
     inkscape:window-width="1855"
     inkscape:window-height="1056"
     id="namedview43"
     showgrid="false"
     inkscape:zoom="7.7282029"
     inkscape:cx="6.0688305"
     inkscape:cy="49.196067"
     inkscape:window-x="65"
     inkscape:window-y="24"
     inkscape:window-maximized="1"
     inkscape:current-layer="Capa_1" /><g
     id="g3"
     transform="matrix(0.06549325,0,0,0.06549325,-9.75e-7,-9.7500001e-7)"><g
       id="g5"><path
         d="m 480.9,333.2 c -27.2,-22.3 -56.5,-37.1 -62.4,-40 -0.7,-0.3 -1.1,-1 -1.1,-1.8 l 0,-42.3 c 5.3,-3.5 8.8,-9.6 8.8,-16.5 l 0,-43.9 c 0,-21.8 -17.7,-39.5 -39.5,-39.5 l -4.7,0 -4.7,0 c -21.8,0 -39.5,17.7 -39.5,39.5 l 0,43.9 c 0,6.9 3.5,12.9 8.8,16.5 l 0,42.3 c 0,0.3 -0.1,0.5 -0.1,0.7 8.3,5.7 17,12.1 25.5,19.1 9.9,8.2 15.6,20.2 15.6,33.2 l 0,35.3 101,0 0,-30.1 c 0,-6.3 -2.8,-12.4 -7.7,-16.4 z"
         id="path7"
         inkscape:connector-curvature="0" /><path
         d="m 360.5,325.1 c -31.9,-26.2 -66.3,-43.6 -73.4,-47.1 -0.8,-0.4 -1.3,-1.2 -1.3,-2.1 l 0,-49.7 c 6.3,-4.2 10.4,-11.3 10.4,-19.3 l 0,-51.6 c 0,-25.6 -20.8,-46.4 -46.4,-46.4 l -5.5,0 -5.5,0 c -25.6,0 -46.4,20.8 -46.4,46.4 l 0,51.5 c 0,8.1 4.1,15.2 10.4,19.3 l 0,49.7 c 0,0.9 -0.5,1.7 -1.3,2.1 -7,3.4 -41.4,20.8 -73.4,47.1 -5.8,4.7 -9.1,11.8 -9.1,19.3 l 0,35.3 125.3,0 125.3,0 0,-35.3 c 0,-7.4 -3.3,-14.5 -9.1,-19.2 z"
         id="path9"
         inkscape:connector-curvature="0" /><path
         d="m 142,291.4 0,-42.3 c 5.3,-3.5 8.8,-9.6 8.8,-16.5 l 0,-43.9 c 0,-21.8 -17.7,-39.5 -39.5,-39.5 l -4.7,0 -4.7,0 c -21.8,0 -39.5,17.7 -39.5,39.5 l 0,43.9 c 0,6.9 3.5,12.9 8.8,16.5 l 0,42.3 c 0,0.7 -0.4,1.4 -1.1,1.8 -6,2.9 -35.3,17.7 -62.4,40 -4.9,4 -7.7,10.1 -7.7,16.4 l 0,30.1 101,0 0,-35.3 c 0,-12.9 5.7,-25 15.6,-33.2 8.5,-7 17.2,-13.4 25.5,-19.1 0,-0.2 -0.1,-0.4 -0.1,-0.7 z"
         id="path11"
         inkscape:connector-curvature="0" /></g></g><g
     id="g13"
     transform="translate(0,-456.60001)" /><g
     id="g15"
     transform="translate(0,-456.60001)" /><g
     id="g17"
     transform="translate(0,-456.60001)" /><g
     id="g19"
     transform="translate(0,-456.60001)" /><g
     id="g21"
     transform="translate(0,-456.60001)" /><g
     id="g23"
     transform="translate(0,-456.60001)" /><g
     id="g25"
     transform="translate(0,-456.60001)" /><g
     id="g27"
     transform="translate(0,-456.60001)" /><g
     id="g29"
     transform="translate(0,-456.60001)" /><g
     id="g31"
     transform="translate(0,-456.60001)" /><g
     id="g33"
     transform="translate(0,-456.60001)" /><g
     id="g35"
     transform="translate(0,-456.60001)" /><g
     id="g37"
     transform="translate(0,-456.60001)" /><g
     id="g39"
     transform="translate(0,-456.60001)" /><g
     id="g41"
     transform="translate(0,-456.60001)" /></svg>