<?xml version="1.0" encoding="UTF-8" standalone="no"?>
<!-- Generator: Adobe Illustrator 18.1.1, SVG Export Plug-In . SVG Version: 6.00 Build 0)  -->

<svg
   xmlns:dc="http://purl.org/dc/elements/1.1/"
   xmlns:cc="http://creativecommons.org/ns#"
   xmlns:rdf="http://www.w3.org/1999/02/22-rdf-syntax-ns#"
   xmlns:svg="http://www.w3.org/2000/svg"
   xmlns="http://www.w3.org/2000/svg"
   xmlns:sodipodi="http://sodipodi.sourceforge.net/DTD/sodipodi-0.dtd"
   xmlns:inkscape="http://www.inkscape.org/namespaces/inkscape"
   version="1.1"
   id="Capa_1"
   x="0px"
   y="0px"
   viewBox="0 0 31.999999 31.999999"
   xml:space="preserve"
   inkscape:version="0.91 r13725"
   sodipodi:docname="home-icon.svg"
   width="32"
   height="32"><metadata
     id="metadata41"><rdf:RDF><cc:Work
         rdf:about=""><dc:format>image/svg+xml</dc:format><dc:type
           rdf:resource="http://purl.org/dc/dcmitype/StillImage" /><dc:title></dc:title></cc:Work></rdf:RDF></metadata><defs
     id="defs39" /><sodipodi:namedview
     pagecolor="#ffffff"
     bordercolor="#666666"
     borderopacity="1"
     objecttolerance="10"
     gridtolerance="10"
     guidetolerance="10"
     inkscape:pageopacity="0"
     inkscape:pageshadow="2"
     inkscape:window-width="1855"
     inkscape:window-height="1056"
     id="namedview37"
     showgrid="false"
     inkscape:zoom="12.308775"
     inkscape:cx="-10.1215"
     inkscape:cy="2.9394611"
     inkscape:window-x="65"
     inkscape:window-y="24"
     inkscape:window-maximized="1"
     inkscape:current-layer="Capa_1" /><g
     id="g3"
     transform="matrix(0.10431142,0,0,0.10431142,2.100028e-5,2.3784923e-5)"><path
       style="fill:#010002"
       d="m 302.93,149.794 c 5.561,-6.116 5.024,-15.49 -1.199,-20.932 L 164.63,8.898 C 158.407,3.456 148.43,3.57 142.338,9.155 L 4.771,135.258 c -6.092,5.585 -6.391,14.947 -0.662,20.902 l 3.449,3.592 c 5.722,5.955 14.971,6.665 20.645,1.581 l 10.281,-9.207 0,134.792 c 0,8.27 6.701,14.965 14.965,14.965 l 53.624,0 c 8.264,0 14.965,-6.695 14.965,-14.965 l 0,-94.3 68.398,0 0,94.3 c -0.119,8.264 5.794,14.959 14.058,14.959 l 56.828,0 c 8.264,0 14.965,-6.695 14.965,-14.965 l 0,-132.888 c 0,0 2.84,2.488 6.343,5.567 3.497,3.073 10.842,0.609 16.403,-5.513 l 3.897,-4.284 z"
       id="path5"
       inkscape:connector-curvature="0" /></g><g
     id="g7"
     transform="translate(0,-274.77301)" /><g
     id="g9"
     transform="translate(0,-274.77301)" /><g
     id="g11"
     transform="translate(0,-274.77301)" /><g
     id="g13"
     transform="translate(0,-274.77301)" /><g
     id="g15"
     transform="translate(0,-274.77301)" /><g
     id="g17"
     transform="translate(0,-274.77301)" /><g
     id="g19"
     transform="translate(0,-274.77301)" /><g
     id="g21"
     transform="translate(0,-274.77301)" /><g
     id="g23"
     transform="translate(0,-274.77301)" /><g
     id="g25"
     transform="translate(0,-274.77301)" /><g
     id="g27"
     transform="translate(0,-274.77301)" /><g
     id="g29"
     transform="translate(0,-274.77301)" /><g
     id="g31"
     transform="translate(0,-274.77301)" /><g
     id="g33"
     transform="translate(0,-274.77301)" /><g
     id="g35"
     transform="translate(0,-274.77301)" /></svg>