<?xml version="1.0" encoding="UTF-8" standalone="no"?>
<!-- Generator: Adobe Illustrator 18.1.1, SVG Export Plug-In . SVG Version: 6.00 Build 0)  -->

<svg
   xmlns:dc="http://purl.org/dc/elements/1.1/"
   xmlns:cc="http://creativecommons.org/ns#"
   xmlns:rdf="http://www.w3.org/1999/02/22-rdf-syntax-ns#"
   xmlns:svg="http://www.w3.org/2000/svg"
   xmlns="http://www.w3.org/2000/svg"
   xmlns:sodipodi="http://sodipodi.sourceforge.net/DTD/sodipodi-0.dtd"
   xmlns:inkscape="http://www.inkscape.org/namespaces/inkscape"
   version="1.1"
   id="Capa_1"
   x="0px"
   y="0px"
   viewBox="0 0 32 32"
   xml:space="preserve"
   inkscape:version="0.91 r13725"
   sodipodi:docname="information-icon.svg"
   width="32"
   height="32"><metadata
     id="metadata43"><rdf:RDF><cc:Work
         rdf:about=""><dc:format>image/svg+xml</dc:format><dc:type
           rdf:resource="http://purl.org/dc/dcmitype/StillImage" /><dc:title></dc:title></cc:Work></rdf:RDF></metadata><defs
     id="defs41" /><sodipodi:namedview
     pagecolor="#ffffff"
     bordercolor="#666666"
     borderopacity="1"
     objecttolerance="10"
     gridtolerance="10"
     guidetolerance="10"
     inkscape:pageopacity="0"
     inkscape:pageshadow="2"
     inkscape:window-width="1855"
     inkscape:window-height="1056"
     id="namedview39"
     showgrid="false"
     units="px"
     inkscape:zoom="3.6277652"
     inkscape:cx="-69.604764"
     inkscape:cy="-21.644354"
     inkscape:window-x="65"
     inkscape:window-y="24"
     inkscape:window-maximized="1"
     inkscape:current-layer="Capa_1" /><g
     id="g3"
     transform="matrix(0.34322273,0,0,0.34322273,0.21175041,0.21175865)"><g
       id="g5"><path
         style="fill:#030104"
         d="M 45.385,0.004 C 19.983,0.344 -0.333,21.215 0.004,46.619 0.344,72.012 21.213,92.334 46.615,91.996 72.013,91.654 92.334,70.783 91.996,45.381 91.656,19.986 70.785,-0.335 45.385,0.004 Z m 5.099,15.329 c 4.676,0 6.057,2.714 6.057,5.815 0,3.877 -3.104,7.461 -8.396,7.461 -4.43,0 -6.537,-2.229 -6.414,-5.91 0,-3.102 2.599,-7.366 8.753,-7.366 z M 38.497,74.75 c -3.195,0 -5.537,-1.938 -3.301,-10.467 l 3.666,-15.125 c 0.637,-2.424 0.744,-3.393 0,-3.393 -0.959,0 -5.107,1.674 -7.557,3.322 L 29.707,46.47 c 7.773,-6.491 16.712,-10.299 20.544,-10.299 3.195,0 3.727,3.779 2.131,9.594 l -4.199,15.9 c -0.744,2.811 -0.424,3.779 0.318,3.779 0.961,0 4.102,-1.166 7.188,-3.59 L 57.5,64.278 C 49.939,71.838 41.69,74.75 38.497,74.75 Z"
         id="path7"
         inkscape:connector-curvature="0" /></g></g><g
     id="g9"
     transform="translate(0,-60.000005)" /><g
     id="g11"
     transform="translate(0,-60.000005)" /><g
     id="g13"
     transform="translate(0,-60.000005)" /><g
     id="g15"
     transform="translate(0,-60.000005)" /><g
     id="g17"
     transform="translate(0,-60.000005)" /><g
     id="g19"
     transform="translate(0,-60.000005)" /><g
     id="g21"
     transform="translate(0,-60.000005)" /><g
     id="g23"
     transform="translate(0,-60.000005)" /><g
     id="g25"
     transform="translate(0,-60.000005)" /><g
     id="g27"
     transform="translate(0,-60.000005)" /><g
     id="g29"
     transform="translate(0,-60.000005)" /><g
     id="g31"
     transform="translate(0,-60.000005)" /><g
     id="g33"
     transform="translate(0,-60.000005)" /><g
     id="g35"
     transform="translate(0,-60.000005)" /><g
     id="g37"
     transform="translate(0,-60.000005)" /></svg>