<?xml version="1.0" encoding="UTF-8" standalone="no"?>
<!-- Generator: Adobe Illustrator 19.0.0, SVG Export Plug-In . SVG Version: 6.00 Build 0)  -->

<svg
   xmlns:dc="http://purl.org/dc/elements/1.1/"
   xmlns:cc="http://creativecommons.org/ns#"
   xmlns:rdf="http://www.w3.org/1999/02/22-rdf-syntax-ns#"
   xmlns:svg="http://www.w3.org/2000/svg"
   xmlns="http://www.w3.org/2000/svg"
   xmlns:sodipodi="http://sodipodi.sourceforge.net/DTD/sodipodi-0.dtd"
   xmlns:inkscape="http://www.inkscape.org/namespaces/inkscape"
   version="1.1"
   id="Capa_1"
   x="0px"
   y="0px"
   viewBox="0 0 32 32"
   xml:space="preserve"
   inkscape:version="0.91 r13725"
   sodipodi:docname="location-icon.svg"
   width="32"
   height="32"><metadata
     id="metadata39"><rdf:RDF><cc:Work
         rdf:about=""><dc:format>image/svg+xml</dc:format><dc:type
           rdf:resource="http://purl.org/dc/dcmitype/StillImage" /><dc:title></dc:title></cc:Work></rdf:RDF></metadata><defs
     id="defs37" /><sodipodi:namedview
     pagecolor="#ffffff"
     bordercolor="#666666"
     borderopacity="1"
     objecttolerance="10"
     gridtolerance="10"
     guidetolerance="10"
     inkscape:pageopacity="0"
     inkscape:pageshadow="2"
     inkscape:window-width="1855"
     inkscape:window-height="1056"
     id="namedview35"
     showgrid="false"
     inkscape:zoom="4.3099512"
     inkscape:cx="-25.638341"
     inkscape:cy="27.3785"
     inkscape:window-x="65"
     inkscape:window-y="24"
     inkscape:window-maximized="1"
     inkscape:current-layer="Capa_1" /><path
     d="M 23.9256,3.2825757 C 21.808902,1.165878 18.994431,0 16.001134,0 13.007252,0 10.193365,1.165878 8.0766672,3.2825757 4.1594332,7.1992257 3.6726282,14.568512 7.0224092,19.033329 L 16.001134,32 24.966417,19.051446 C 28.32964,14.568512 27.842834,7.1992257 23.9256,3.2825757 Z M 16.104572,15.194404 c -2.2552,0 -4.090801,-1.8356 -4.090801,-4.090801 0,-2.2552001 1.835601,-4.090801 4.090801,-4.090801 2.255201,0 4.090802,1.8356009 4.090802,4.090801 0,2.255201 -1.835601,4.090801 -4.090802,4.090801 z"
     id="path3"
     inkscape:connector-curvature="0" /><g
     id="g5"
     transform="translate(0,-22.757)" /><g
     id="g7"
     transform="translate(0,-22.757)" /><g
     id="g9"
     transform="translate(0,-22.757)" /><g
     id="g11"
     transform="translate(0,-22.757)" /><g
     id="g13"
     transform="translate(0,-22.757)" /><g
     id="g15"
     transform="translate(0,-22.757)" /><g
     id="g17"
     transform="translate(0,-22.757)" /><g
     id="g19"
     transform="translate(0,-22.757)" /><g
     id="g21"
     transform="translate(0,-22.757)" /><g
     id="g23"
     transform="translate(0,-22.757)" /><g
     id="g25"
     transform="translate(0,-22.757)" /><g
     id="g27"
     transform="translate(0,-22.757)" /><g
     id="g29"
     transform="translate(0,-22.757)" /><g
     id="g31"
     transform="translate(0,-22.757)" /><g
     id="g33"
     transform="translate(0,-22.757)" /></svg>