<?xml version="1.0" encoding="UTF-8" standalone="no"?>
<!-- Generator: Adobe Illustrator 18.1.1, SVG Export Plug-In . SVG Version: 6.00 Build 0)  -->

<svg
   xmlns:dc="http://purl.org/dc/elements/1.1/"
   xmlns:cc="http://creativecommons.org/ns#"
   xmlns:rdf="http://www.w3.org/1999/02/22-rdf-syntax-ns#"
   xmlns:svg="http://www.w3.org/2000/svg"
   xmlns="http://www.w3.org/2000/svg"
   xmlns:sodipodi="http://sodipodi.sourceforge.net/DTD/sodipodi-0.dtd"
   xmlns:inkscape="http://www.inkscape.org/namespaces/inkscape"
   version="1.1"
   id="Capa_1"
   x="0px"
   y="0px"
   viewBox="0 0 32 32"
   xml:space="preserve"
   inkscape:version="0.91 r13725"
   sodipodi:docname="mail-icon.svg"
   width="32"
   height="32"><metadata
     id="metadata45"><rdf:RDF><cc:Work
         rdf:about=""><dc:format>image/svg+xml</dc:format><dc:type
           rdf:resource="http://purl.org/dc/dcmitype/StillImage" /><dc:title></dc:title></cc:Work></rdf:RDF></metadata><defs
     id="defs43" /><sodipodi:namedview
     pagecolor="#ffffff"
     bordercolor="#666666"
     borderopacity="1"
     objecttolerance="10"
     gridtolerance="10"
     guidetolerance="10"
     inkscape:pageopacity="0"
     inkscape:pageshadow="2"
     inkscape:window-width="1855"
     inkscape:window-height="1056"
     id="namedview41"
     showgrid="false"
     inkscape:zoom="8.4718382"
     inkscape:cx="-13.043214"
     inkscape:cy="13.9285"
     inkscape:window-x="65"
     inkscape:window-y="24"
     inkscape:window-maximized="1"
     inkscape:current-layer="Capa_1" /><g
     id="g3"
     transform="matrix(1.1487238,0,0,1.1487238,5.517e-7,-5.738102e-4)"><g
       id="g5"><path
         style="fill:#010002"
         d="m 2.203,5.331 10.034,7.948 c 0.455,0.36 1.082,0.52 1.691,0.49 0.608,0.03 1.235,-0.129 1.69,-0.49 L 25.652,5.331 C 26.456,4.698 26.274,4.179 25.254,4.179 l -11.325,0 -11.325,0 c -1.021,0 -1.203,0.519 -0.401,1.152 z"
         id="path7"
         inkscape:connector-curvature="0" /><path
         style="fill:#010002"
         d="m 26.377,7.428 -10.965,8.325 c -0.41,0.308 -0.947,0.458 -1.482,0.451 -0.536,0.007 -1.073,-0.144 -1.483,-0.451 L 1.48,7.428 C 0.666,6.811 0,7.142 0,8.163 l 0,13.659 c 0,1.021 0.836,1.857 1.857,1.857 l 12.071,0 12.072,0 c 1.021,0 1.857,-0.836 1.857,-1.857 l 0,-13.659 c 0,-1.021 -0.666,-1.352 -1.48,-0.735 z"
         id="path9"
         inkscape:connector-curvature="0" /></g></g><g
     id="g11"
     transform="translate(0,4.1429996)" /><g
     id="g13"
     transform="translate(0,4.1429996)" /><g
     id="g15"
     transform="translate(0,4.1429996)" /><g
     id="g17"
     transform="translate(0,4.1429996)" /><g
     id="g19"
     transform="translate(0,4.1429996)" /><g
     id="g21"
     transform="translate(0,4.1429996)" /><g
     id="g23"
     transform="translate(0,4.1429996)" /><g
     id="g25"
     transform="translate(0,4.1429996)" /><g
     id="g27"
     transform="translate(0,4.1429996)" /><g
     id="g29"
     transform="translate(0,4.1429996)" /><g
     id="g31"
     transform="translate(0,4.1429996)" /><g
     id="g33"
     transform="translate(0,4.1429996)" /><g
     id="g35"
     transform="translate(0,4.1429996)" /><g
     id="g37"
     transform="translate(0,4.1429996)" /><g
     id="g39"
     transform="translate(0,4.1429996)" /></svg>