<?xml version="1.0" encoding="UTF-8" standalone="no"?>
<!-- Generator: Adobe Illustrator 19.0.0, SVG Export Plug-In . SVG Version: 6.00 Build 0)  -->

<svg
   xmlns:dc="http://purl.org/dc/elements/1.1/"
   xmlns:cc="http://creativecommons.org/ns#"
   xmlns:rdf="http://www.w3.org/1999/02/22-rdf-syntax-ns#"
   xmlns:svg="http://www.w3.org/2000/svg"
   xmlns="http://www.w3.org/2000/svg"
   xmlns:sodipodi="http://sodipodi.sourceforge.net/DTD/sodipodi-0.dtd"
   xmlns:inkscape="http://www.inkscape.org/namespaces/inkscape"
   version="1.1"
   id="Capa_1"
   x="0px"
   y="0px"
   viewBox="0 0 32 32"
   xml:space="preserve"
   inkscape:version="0.91 r13725"
   sodipodi:docname="search-icon.svg"
   width="32"
   height="32"><metadata
     id="metadata4310"><rdf:RDF><cc:Work
         rdf:about=""><dc:format>image/svg+xml</dc:format><dc:type
           rdf:resource="http://purl.org/dc/dcmitype/StillImage" /><dc:title></dc:title></cc:Work></rdf:RDF></metadata><defs
     id="defs4308" /><sodipodi:namedview
     pagecolor="#ffffff"
     bordercolor="#666666"
     borderopacity="1"
     objecttolerance="10"
     gridtolerance="10"
     guidetolerance="10"
     inkscape:pageopacity="0"
     inkscape:pageshadow="2"
     inkscape:window-width="1855"
     inkscape:window-height="1056"
     id="namedview4306"
     showgrid="false"
     inkscape:zoom="2.071411"
     inkscape:cx="-147.06431"
     inkscape:cy="112.93044"
     inkscape:window-x="65"
     inkscape:window-y="24"
     inkscape:window-maximized="1"
     inkscape:current-layer="Capa_1" /><path
     d="m 30.577892,28.7961 -7.412811,-7.709699 c 1.905962,-2.265726 2.950253,-5.116473 2.950253,-8.084222 0,-6.9338617 -5.64135,-12.57521115 -12.575212,-12.57521115 -6.9338616,0 -12.57521082,5.64134945 -12.57521082,12.57521115 0,6.933863 5.64134922,12.575212 12.57521082,12.575212 2.603068,0 5.083666,-0.78513 7.204503,-2.275566 l 7.46913,7.7682 c 0.312192,0.324222 0.732093,0.503007 1.182069,0.503007 0.425915,0 0.829964,-0.162384 1.13669,-0.457628 0.651723,-0.62712 0.672497,-1.667035 0.04537,-2.319304 z M 13.540122,3.7074581 c 5.12522,0 9.294722,4.1695027 9.294722,9.2947209 0,5.12522 -4.169502,9.294722 -9.294722,9.294722 -5.1252182,0 -9.2947207,-4.169502 -9.2947207,-9.294722 0,-5.1252182 4.1695025,-9.2947209 9.2947207,-9.2947209 z"
     id="path4274"
     style="fill:#00000f;fill-opacity:0.94117647"
     inkscape:connector-curvature="0" /><g
     id="g4276"
     transform="translate(0,-24.966)" /><g
     id="g4278"
     transform="translate(0,-24.966)" /><g
     id="g4280"
     transform="translate(0,-24.966)" /><g
     id="g4282"
     transform="translate(0,-24.966)" /><g
     id="g4284"
     transform="translate(0,-24.966)" /><g
     id="g4286"
     transform="translate(0,-24.966)" /><g
     id="g4288"
     transform="translate(0,-24.966)" /><g
     id="g4290"
     transform="translate(0,-24.966)" /><g
     id="g4292"
     transform="translate(0,-24.966)" /><g
     id="g4294"
     transform="translate(0,-24.966)" /><g
     id="g4296"
     transform="translate(0,-24.966)" /><g
     id="g4298"
     transform="translate(0,-24.966)" /><g
     id="g4300"
     transform="translate(0,-24.966)" /><g
     id="g4302"
     transform="translate(0,-24.966)" /><g
     id="g4304"
     transform="translate(0,-24.966)" /></svg>